<?xml version="1.0" encoding="UTF-8"?>
<svg width="14px" height="15px" viewBox="0 0 14 15" version="1.1" xmlns="http://www.w3.org/2000/svg" xmlns:xlink="http://www.w3.org/1999/xlink">
    <!-- Generator: Sketch 48.2 (47327) - http://www.bohemiancoding.com/sketch -->
    <title>icon-logo-black-mini</title>
    <desc>Created with Sketch.</desc>
    <defs></defs>
    <g id="Artboard-Copy" stroke="none" stroke-width="1" fill="none" fill-rule="evenodd" transform="translate(-122.000000, -331.000000)">
        <path d="M130.538194,334.180176 C130.365456,334.435251 130.07855,334.587193 129.770422,334.587193 L125.401038,334.587193 L125.401038,342.027241 C125.401038,342.360409 125.221509,342.669386 124.931632,342.83406 C124.789876,342.914275 124.631993,342.95417 124.474109,342.95417 C124.309011,342.95417 124.144336,342.910031 123.997912,342.822601 L123.997488,342.822176 L122.942809,342.189369 C122.665239,342.022997 122.492926,341.718265 122.492926,341.394434 L122.492926,333.749816 C122.492926,333.526148 122.573565,333.309694 122.720838,333.141201 L123.718221,331.996121 C123.89393,331.794098 124.148581,331.678231 124.416813,331.678231 L129.348551,331.678231 C129.729678,331.678231 130.067939,331.906993 130.209695,332.260533 L130.631991,333.316061 C130.745735,333.602119 130.710932,333.925101 130.538194,334.180176 Z M135.496501,335.326614 C135.77407,335.492986 135.946808,335.797294 135.946808,336.121125 L135.946808,343.765742 C135.946808,343.989411 135.865744,344.205864 135.718471,344.374358 L134.721513,345.519438 C134.547077,345.721036 134.291578,345.837327 134.022497,345.837327 L129.090335,345.837327 C128.709632,345.837327 128.371795,345.60899 128.230039,345.255874 L127.807743,344.199498 C127.69315,343.914289 127.727953,343.591731 127.900691,343.336231 C128.073429,343.081156 128.360336,342.92879 128.668463,342.92879 L133.037847,342.92879 L133.037847,335.488317 C133.037847,335.155149 133.218225,334.845748 133.508102,334.681499 C133.79798,334.516824 134.156188,334.521493 134.441822,334.693807 L135.496501,335.326614 Z" id="icon-logo-black-mini" fill="#000000"></path>
    </g>
</svg>