<?xml version="1.0" encoding="UTF-8"?>
<svg width="34px" height="36px" viewBox="0 0 34 36" version="1.1" xmlns="http://www.w3.org/2000/svg" xmlns:xlink="http://www.w3.org/1999/xlink">
    <!-- Generator: Sketch 48.2 (47327) - http://www.bohemiancoding.com/sketch -->
    <title>icon-logo-white</title>
    <desc>Created with Sketch.</desc>
    <defs></defs>
    <g id="Artboard-Copy" stroke="none" stroke-width="1" fill="none" fill-rule="evenodd" transform="translate(-14.000000, -16.000000)">
        <path d="M17.8856254,45.7227667 L14.8483866,43.9006264 C14.5418204,43.7158746 14.3540232,43.3839304 14.3540232,43.0266082 L14.3540232,21.0177932 C14.3540232,20.7721342 14.4423386,20.5345961 14.6047578,20.3488292 L17.4755169,17.0527348 C17.6683897,16.8304235 17.9485628,16.7025184 18.2439627,16.7025184 L32.4434602,16.7025184 C32.8596593,16.7025184 33.2342386,16.9562984 33.3895519,17.3430591 L34.6046505,20.3802979 C34.871627,21.0492619 34.3792938,21.778118 33.6575436,21.778118 L20.4477881,21.778118 C19.8854116,21.778118 19.4296228,22.2339069 19.4296228,22.7972984 L19.4296228,44.8487484 C19.4296228,45.640542 18.5647406,46.1298298 17.8856254,45.7227667 Z M43.8128033,22.7041104 L46.8500421,24.5272658 C47.1576234,24.7110025 47.3444055,25.0429467 47.3444055,25.4002689 L47.3444055,47.4090839 C47.3444055,47.6547429 47.25609,47.892281 47.0936708,48.0780479 L44.2229117,51.3741423 C44.0300389,51.5964536 43.7498658,51.7243587 43.4544659,51.7243587 L29.2549685,51.7243587 C28.8387693,51.7243587 28.4641901,51.4705787 28.3088767,51.083818 L27.0937782,48.0465792 C26.8268016,47.3776152 27.3191348,46.6487591 28.0408851,46.6487591 L41.2506406,46.6487591 C41.813017,46.6487591 42.2688059,46.1929702 42.2688059,45.6295787 L42.2688059,23.5781286 C42.2688059,22.7863351 43.133688,22.2970473 43.8128033,22.7041104 Z" id="icon-logo-white" fill="#FFFFFF"></path>
    </g>
</svg>