<?xml version="1.0" encoding="iso-8859-1"?>
<!-- Generator: Adobe Illustrator 21.0.0, SVG Export Plug-In . SVG Version: 6.00 Build 0)  -->
<svg version="1.1" id="Capa_1" xmlns="http://www.w3.org/2000/svg" xmlns:xlink="http://www.w3.org/1999/xlink" x="0px" y="0px"
	 viewBox="0 0 512 512" style="enable-background:new 0 0 512 512;" xml:space="preserve">
<linearGradient id="SVGID_1_" gradientUnits="userSpaceOnUse" x1="127.7207" y1="296.4046" x2="709.5007" y2="-285.3754" gradientTransform="matrix(1.0039 0 0 -1.0039 0.192 516.5581)">
	<stop  offset="0" style="stop-color:#FFB92D"/>
	<stop  offset="1" style="stop-color:#F59500"/>
</linearGradient>
<path style="fill:url(#SVGID_1_);" d="M437.29,511.903H74.707c-55.464,0-91.538-58.369-66.734-107.977L189.264,41.341
	c27.496-54.992,105.972-54.992,133.468,0l181.291,362.584C528.829,453.534,492.755,511.903,437.29,511.903z"/>
<linearGradient id="SVGID_2_" gradientUnits="userSpaceOnUse" x1="204.9519" y1="219.1757" x2="380.3219" y2="43.8157" gradientTransform="matrix(1.0039 0 0 -1.0039 0.192 516.5581)">
	<stop  offset="0" style="stop-color:#FFB92D"/>
	<stop  offset="1" style="stop-color:#F59500"/>
</linearGradient>
<path style="fill:url(#SVGID_2_);" d="M437.29,511.903H74.707c-55.464,0-91.538-58.369-66.734-107.977L189.264,41.341
	c27.496-54.992,105.972-54.992,133.468,0l181.291,362.584C528.829,453.534,492.755,511.903,437.29,511.903z"/>
<linearGradient id="SVGID_3_" gradientUnits="userSpaceOnUse" x1="19.8552" y1="259.5409" x2="489.7619" y2="259.5409" gradientTransform="matrix(1.0039 0 0 -1.0039 0.192 516.5581)">
	<stop  offset="0" style="stop-color:#FFF465"/>
	<stop  offset="1" style="stop-color:#FFE600"/>
</linearGradient>
<path style="fill:url(#SVGID_3_);" d="M486.065,412.904L304.774,50.32c-9.438-18.876-27.672-30.145-48.775-30.145
	s-39.337,11.269-48.775,30.145L25.932,412.904c-8.514,17.028-7.622,36.863,2.387,53.057c10.009,16.195,27.351,25.864,46.388,25.864
	h362.584c19.037,0,36.379-9.669,46.388-25.864C493.687,449.767,494.58,429.933,486.065,412.904z M466.6,455.405
	c-6.324,10.232-17.28,16.341-29.308,16.341H74.707c-12.028,0-22.985-6.109-29.308-16.341c-6.324-10.231-6.888-22.763-1.508-33.522
	L225.182,59.3c6.052-12.104,17.283-19.046,30.816-19.046s24.765,6.942,30.816,19.046l181.291,362.584
	C473.486,432.642,472.923,445.174,466.6,455.405z"/>
<linearGradient id="SVGID_4_" gradientUnits="userSpaceOnUse" x1="421.3265" y1="104.4504" x2="137.2365" y2="388.5403" gradientTransform="matrix(1.0039 0 0 -1.0039 0.192 516.5581)">
	<stop  offset="0" style="stop-color:#BE3F45;stop-opacity:0"/>
	<stop  offset="1" style="stop-color:#BE3F45"/>
</linearGradient>
<path style="fill:url(#SVGID_4_);" d="M437.286,511.899h-28.551L243.701,346.865c-4.879-2.389-7.329-6.515-7.329-12.408
	c0-22.267-0.914-38.149-2.741-88.546c-1.827-50.387-2.741-60.737-2.741-83.004c0-7.108,2.419-12.589,7.258-16.454
	c4.829-3.875,11.093-5.803,18.783-5.803s13.342,2.008,16.936,6.034c0.693,0.763,151.14,151.16,203.072,203.072l27.086,54.171
	C528.833,453.531,492.753,511.899,437.286,511.899z"/>
<linearGradient id="SVGID_5_" gradientUnits="userSpaceOnUse" x1="329.3392" y1="33.2931" x2="236.6692" y2="125.9731" gradientTransform="matrix(1.0039 0 0 -1.0039 0.192 516.5581)">
	<stop  offset="0" style="stop-color:#BE3F45;stop-opacity:0"/>
	<stop  offset="1" style="stop-color:#BE3F45"/>
</linearGradient>
<path style="fill:url(#SVGID_5_);" d="M396.969,511.899h-74.671l-85.604-85.604c-5.692-5.02-8.543-10.872-8.543-17.569
	c0-6.977,2.851-12.91,8.543-17.789c5.692-4.879,12.609-7.319,20.741-7.319c7.158,0,13.352,2.44,18.572,7.319L396.969,511.899z"/>
<path style="fill:#FFFFFF;" d="M228.154,408.722c0-6.977,2.846-12.903,8.537-17.781c5.692-4.88,12.61-7.326,20.741-7.326
	c7.161,0,13.351,2.446,18.571,7.326c5.221,4.878,7.84,10.804,7.84,17.781c0,6.696-2.617,12.553-7.84,17.573
	c-5.22,5.022-11.411,7.532-18.571,7.532c-8.132,0-15.049-2.511-20.741-7.532C231,421.275,228.154,415.419,228.154,408.722z
	 M230.893,162.908c0-7.105,2.417-12.593,7.254-16.459c4.835-3.866,11.097-5.801,18.786-5.801s13.338,2.013,16.94,6.035
	c3.601,4.022,5.406,9.429,5.406,16.225c0,22.269-0.386,32.613-1.141,83.008c-0.763,50.397-1.14,66.277-1.14,88.537
	c0,4.645-2.175,8.281-6.519,10.905c-4.351,2.625-8.866,3.939-13.545,3.939c-13.707,0-20.562-4.944-20.562-14.844
	c0-22.26-0.914-38.14-2.739-88.537C231.805,195.52,230.893,185.176,230.893,162.908z"/>
<g>
</g>
<g>
</g>
<g>
</g>
<g>
</g>
<g>
</g>
<g>
</g>
<g>
</g>
<g>
</g>
<g>
</g>
<g>
</g>
<g>
</g>
<g>
</g>
<g>
</g>
<g>
</g>
<g>
</g>
</svg>
