<svg width="22px" height="22px" viewBox="0 0 22 22" version="1.1" xmlns="http://www.w3.org/2000/svg" xmlns:xlink="http://www.w3.org/1999/xlink">
    <g id="Artboard-Copy" stroke="none" stroke-width="1" fill="none" fill-rule="evenodd" transform="translate(-60.000000, -197.000000)">
        <g id="Group-2" transform="translate(61.000000, 199.000000)" fill="#FFFFFF">
            <path d="M2.11883008,1.5417207 C1.71783008,1.5417207 1.39083008,1.8687207 1.39083008,2.2697207 L1.39083008,13.2087207 C1.39083008,13.6097207 1.71783008,13.9367207 2.11883008,13.9367207 L17.3348301,13.9367207 C17.7358301,13.9367207 18.0618301,13.6097207 18.0618301,13.2087207 L18.0618301,2.2697207 C18.0618301,1.8687207 17.7358301,1.5417207 17.3348301,1.5417207 L2.11883008,1.5417207 Z M9.26883008,16.9602207 L9.26883008,14.8527207 L2.11883008,14.8527207 C1.21283008,14.8527207 0.475830078,14.1147207 0.475830078,13.2087207 L0.475830078,2.2697207 C0.475830078,1.3637207 1.21283008,0.625720703 2.11883008,0.625720703 L17.3348301,0.625720703 C18.2408301,0.625720703 18.9768301,1.3637207 18.9768301,2.2697207 L18.9768301,13.2087207 C18.9768301,14.1147207 18.2408301,14.8527207 17.3348301,14.8527207 L10.1838301,14.8527207 L10.1838301,16.9602207 L13.9968301,16.9602207 L13.9968301,17.8762207 L5.45083008,17.8762207 L5.45083008,16.9602207 L9.26883008,16.9602207 Z" id="Combined-Shape"></path>
            <polygon id="Fill-4" points="0.932830078 10.9932207 18.5198301 10.9932207 18.5198301 10.0772207 0.932830078 10.0772207"></polygon>
            <path d="M10.4186301,12.5539207 C10.4186301,12.9359207 10.1086301,13.2459207 9.72663008,13.2459207 C9.34463008,13.2459207 9.03463008,12.9359207 9.03463008,12.5539207 C9.03463008,12.1719207 9.34463008,11.8619207 9.72663008,11.8619207 C10.1086301,11.8619207 10.4186301,12.1719207 10.4186301,12.5539207" id="Fill-6"></path>
        </g>
    </g>
</svg>