<?xml version="1.0" encoding="UTF-8"?>
<svg width="23px" height="22px" viewBox="0 0 23 22" version="1.1" xmlns="http://www.w3.org/2000/svg" xmlns:xlink="http://www.w3.org/1999/xlink">
    <!-- Generator: Sketch 48.2 (47327) - http://www.bohemiancoding.com/sketch -->
    <title>icon-menu-setting</title>
    <desc>Created with Sketch.</desc>
    <defs></defs>
    <g id="Artboard-Copy" stroke="none" stroke-width="1" fill="none" fill-rule="evenodd" transform="translate(-155.000000, -197.000000)">
        <path d="M171.591488,203.116743 C171.17653,202.673834 170.733621,202.314777 170.235887,202.010546 L170.457341,200.736647 C170.512167,200.294813 170.263837,199.906731 169.848879,199.769128 L167.939642,199.215492 C167.523609,199.104765 167.108651,199.298269 166.943098,199.713227 L166.417413,200.903275 C165.835827,200.875324 165.20049,200.930151 164.618903,201.068828 L163.870689,200.017458 C163.622359,199.658401 163.1515,199.574549 162.764493,199.769128 L161.04876,200.709771 C160.661752,200.930151 160.523074,201.373059 160.661752,201.761142 L161.132611,202.951189 C160.688628,203.393023 160.274745,203.891833 159.941488,204.444393 L158.696614,204.222939 C158.253706,204.140162 157.865623,204.417518 157.755971,204.804525 L157.174385,206.713762 C157.063658,207.12872 157.258236,207.571629 157.673194,207.710306 L158.807341,208.208041 C158.779391,208.845528 158.862167,209.508816 159.000845,210.118353 L158.033326,210.78164 C157.70007,211.058996 157.590418,211.500829 157.782847,211.887837 L158.724565,213.632595 C158.946019,213.990577 159.416878,214.158281 159.775935,213.990577 L160.882131,213.548744 C161.298164,214.019603 161.795899,214.40661 162.321584,214.738792 L162.156031,215.874014 C162.073254,216.287897 162.321584,216.702855 162.737617,216.813582 L164.618903,217.395168 C165.032786,217.505895 165.47677,217.284441 165.642323,216.897433 L166.085232,215.844988 C166.749594,215.900889 167.386007,215.790162 168.049295,215.651484 L168.713657,216.592127 C168.935112,216.953334 169.432846,217.036111 169.792978,216.841532 L171.536662,215.900889 C171.895719,215.679435 172.061272,215.209651 171.895719,214.821568 L171.453885,213.770198 C171.95162,213.300414 172.394528,212.773654 172.72671,212.165192 L173.888807,212.358696 C174.331716,212.441472 174.718723,212.193143 174.857401,211.77711 L175.382011,209.868948 C175.520689,209.45399 175.299234,209.039032 174.912227,208.872404 L173.77808,208.401545 C173.77808,207.766207 173.694228,207.12872 173.556626,206.521333 L174.55317,205.827945 C174.884276,205.55274 174.995003,205.080806 174.8015,204.721749 L173.833981,202.978065 C173.639402,202.619008 173.196494,202.424429 172.781536,202.619008 L171.591488,203.116743 Z M168.112721,211.665307 C166.27766,212.645726 163.998616,211.981364 163.017122,210.177479 C162.004453,208.373594 162.668816,206.09455 164.504951,205.113056 C166.27766,204.101462 168.58788,204.765824 169.568299,206.569709 C170.582043,208.40477 169.88543,210.652638 168.112721,211.665307 Z" id="Stroke-8" stroke="#ABB2BF"></path>
    </g>
</svg>