<?xml version="1.0" encoding="UTF-8"?>
<svg width="15px" height="14px" viewBox="0 0 15 14" version="1.1" xmlns="http://www.w3.org/2000/svg" xmlns:xlink="http://www.w3.org/1999/xlink">
    <!-- Generator: Sketch 48.2 (47327) - http://www.bohemiancoding.com/sketch -->
    <title>icon-more</title>
    <desc>Created with Sketch.</desc>
    <defs></defs>
    <g id="Artboard-Copy-2" stroke="none" stroke-width="1" fill="none" fill-rule="evenodd" transform="translate(-431.000000, -402.000000)">
        <path d="M442.090619,409.008667 C442.090619,408.222623 442.727833,407.585408 443.513877,407.585408 C444.299922,407.585408 444.937136,408.222623 444.937136,409.008667 C444.937136,409.794711 444.299922,410.431925 443.513877,410.431925 C442.727833,410.431925 442.090619,409.794711 442.090619,409.008667 Z M436.923368,409.008667 C436.923368,408.222623 437.560582,407.585408 438.346626,407.585408 C439.13267,407.585408 439.769885,408.222623 439.769885,409.008667 C439.769885,409.794711 439.13267,410.431925 438.346626,410.431925 C437.560582,410.431925 436.923368,409.794711 436.923368,409.008667 Z M431.586334,409.008667 C431.586334,408.222623 432.223548,407.585408 433.009592,407.585408 C433.795636,407.585408 434.432851,408.222623 434.432851,409.008667 C434.432851,409.794711 433.795636,410.431925 433.009592,410.431925 C432.223548,410.431925 431.586334,409.794711 431.586334,409.008667 Z" id="Combined-Shape" fill="#4E5C65"></path>
    </g>
</svg>