<?xml version="1.0" encoding="UTF-8"?>
<svg width="14px" height="15px" viewBox="0 0 14 15" version="1.1" xmlns="http://www.w3.org/2000/svg" xmlns:xlink="http://www.w3.org/1999/xlink">
    <!-- Generator: Sketch 48.2 (47327) - http://www.bohemiancoding.com/sketch -->
    <title>icon-widget-front-arrow</title>
    <desc>Created with Sketch.</desc>
    <defs></defs>
    <g id="Artboard-Copy" stroke="none" stroke-width="1" fill="none" fill-rule="evenodd" transform="translate(-146.000000, -97.000000)">
        <path d="M149.485362,103.687378 L158.462533,103.687378 C158.835325,103.687378 159.137533,103.989586 159.137533,104.362378 C159.137533,104.73517 158.835325,105.037378 158.462533,105.037378 L149.688239,105.037378 L153.783552,109.226036 C154.044169,109.492593 154.039353,109.919953 153.772796,110.18057 C153.506238,110.441187 153.078879,110.436371 152.818262,110.169814 L146.996745,104.215605 L152.831735,98.574358 C153.09975,98.3152412 153.527076,98.3224554 153.786193,98.5904713 C154.045309,98.8584872 154.038095,99.2858126 153.770079,99.5449294 L149.485362,103.687378 Z" id="Combined-Shape-Copy-19" stroke="#5B606D" stroke-width="0.5" fill="#5B606D" fill-rule="nonzero" transform="translate(153.067139, 104.378784) scale(-1, 1) translate(-153.067139, -104.378784) "></path>
    </g>
</svg>