<?xml version="1.0" encoding="UTF-8"?>
<svg width="14px" height="15px" viewBox="0 0 14 15" version="1.1" xmlns="http://www.w3.org/2000/svg" xmlns:xlink="http://www.w3.org/1999/xlink">
    <!-- Generator: Sketch 48.2 (47327) - http://www.bohemiancoding.com/sketch -->
    <title>icon-widget-setting</title>
    <desc>Created with Sketch.</desc>
    <defs></defs>
    <g id="Artboard-Copy" stroke="none" stroke-width="1" fill="none" fill-rule="evenodd" transform="translate(-234.000000, -97.000000)">
        <path d="M244.717104,100.711822 C244.423018,100.398737 244.110693,100.144926 243.758093,99.9298702 L243.914635,99.0293721 C243.954151,98.7170475 243.777851,98.4434785 243.484524,98.3454496 L242.134917,97.9540939 C241.84159,97.8758228 241.548263,98.0126073 241.431237,98.3059341 L241.059639,99.1463989 C240.648525,99.127401 240.198656,99.1669166 239.788303,99.2641856 L239.259403,98.5209897 C239.083862,98.2664185 238.75102,98.2079052 238.477451,98.3454496 L237.264628,99.0103743 C236.990299,99.1669166 236.89303,99.4800011 236.990299,99.7535701 L237.323902,100.594795 C237.010057,100.907879 236.71673,101.25972 236.481917,101.650315 L235.601937,101.493773 C235.288852,101.43526 235.014523,101.631317 234.937012,101.904887 L234.525899,103.254494 C234.447627,103.54782 234.585172,103.861665 234.878499,103.958934 L235.679448,104.310774 C235.66045,104.760643 235.718963,105.22951 235.816992,105.661141 L235.13231,106.130768 C234.897496,106.326066 234.819985,106.63839 234.95601,106.911959 L235.620935,108.1453 C235.777477,108.398351 236.110319,108.516898 236.36489,108.398351 L237.146842,108.086027 C237.440169,108.418869 237.792769,108.692438 238.164367,108.927251 L238.04734,109.72972 C237.988826,110.022287 238.164367,110.316374 238.457693,110.393885 L239.788303,110.804999 C240.080869,110.88327 240.394714,110.727487 240.511741,110.453158 L240.824065,109.709203 C241.293692,109.748718 241.743561,109.670447 242.213188,109.572418 L242.682815,110.237343 C242.838597,110.492674 243.191197,110.551187 243.445768,110.413643 L244.677589,109.748718 C244.93216,109.592176 245.049187,109.260094 244.93216,108.985765 L244.619076,108.242569 C244.971676,107.910486 245.284,107.538129 245.518814,107.108017 L246.341041,107.245562 C246.653365,107.304075 246.926934,107.127015 247.024963,106.834448 L247.396561,105.484841 C247.49459,105.191514 247.338048,104.898188 247.064479,104.780401 L246.26201,104.447559 C246.26201,103.998449 246.203496,103.54782 246.105467,103.118469 L246.809907,102.628325 C247.044721,102.433787 247.122992,102.100184 246.985448,101.846373 L246.301525,100.613793 C246.163981,100.359981 245.851656,100.222437 245.557569,100.359981 L244.717104,100.711822 Z M242.258023,106.754657 C240.96085,107.447699 239.349832,106.978072 238.655271,105.702936 C237.940192,104.427801 238.409819,102.817543 239.706992,102.122982 C240.96085,101.407903 242.593145,101.87677 243.286946,103.153425 C244.002785,104.449838 243.510361,106.038818 242.258023,106.754657 Z" id="Fill-1-Copy-7" fill="#FFFFFF"></path>
    </g>
</svg>