<?xml version="1.0" encoding="UTF-8"?>
<svg width="15px" height="15px" viewBox="0 0 15 15" version="1.1" xmlns="http://www.w3.org/2000/svg" xmlns:xlink="http://www.w3.org/1999/xlink">
    <!-- Generator: Sketch 48.2 (47327) - http://www.bohemiancoding.com/sketch -->
    <title>icon-widget-close</title>
    <desc>Created with Sketch.</desc>
    <defs></defs>
    <g id="Artboard-Copy" stroke="none" stroke-width="1" fill="none" fill-rule="evenodd" transform="translate(-362.000000, -96.000000)">
        <path d="M368.788516,102.378784 L368.788516,97.8787842 C368.788516,97.3264994 369.236231,96.8787842 369.788516,96.8787842 C370.3408,96.8787842 370.788516,97.3264994 370.788516,97.8787842 L370.788516,102.378784 L375.288516,102.378784 C375.8408,102.378784 376.288516,102.826499 376.288516,103.378784 C376.288516,103.931069 375.8408,104.378784 375.288516,104.378784 L370.788516,104.378784 L370.788516,108.878784 C370.788516,109.431069 370.3408,109.878784 369.788516,109.878784 C369.236231,109.878784 368.788516,109.431069 368.788516,108.878784 L368.788516,104.378784 L364.288516,104.378784 C363.736231,104.378784 363.288516,103.931069 363.288516,103.378784 C363.288516,102.826499 363.736231,102.378784 364.288516,102.378784 L368.788516,102.378784 Z" id="Combined-Shape-Copy-30" stroke="#BEC0CC" stroke-width="0.5" fill="#BEC0CC" fill-rule="nonzero" transform="translate(369.788516, 103.378784) rotate(45.000000) translate(-369.788516, -103.378784) "></path>
    </g>
</svg>