<?xml version="1.0" encoding="UTF-8"?>
<svg width="14px" height="14px" viewBox="0 0 14 14" version="1.1" xmlns="http://www.w3.org/2000/svg" xmlns:xlink="http://www.w3.org/1999/xlink">
    <!-- Generator: Sketch 48.2 (47327) - http://www.bohemiancoding.com/sketch -->
    <title>icon-delete</title>
    <desc>Created with Sketch.</desc>
    <defs></defs>
    <g id="시안" stroke="none" stroke-width="1" fill="none" fill-rule="evenodd">
        <path d="M10.2687699,12.4997148 C10.2687699,12.8183395 10.0124189,13.0762738 9.69678145,13.0762738 L9.52476742,13.0762738 C9.208295,13.0762738 8.95361403,12.8183395 8.95361403,12.4997148 L8.95361403,5.56752061 C8.95361403,5.24889592 9.208295,4.99180457 9.52476742,4.99180457 L9.69678145,4.99180457 C10.0124189,4.99180457 10.2687699,5.24889592 10.2687699,5.56752061 L10.2687699,12.4997148 Z M7.63845819,12.4997148 C7.63845819,12.8183395 7.38294219,13.0762738 7.06730479,13.0762738 L6.89445574,13.0762738 C6.57965336,13.0762738 6.32330235,12.8183395 6.32330235,12.4997148 L6.32330235,5.56752061 C6.32330235,5.24889592 6.57965336,4.99180457 6.89445574,4.99180457 L7.06730479,4.99180457 C7.38294219,4.99180457 7.63845819,5.24889592 7.63845819,5.56752061 L7.63845819,12.4997148 Z M5.00898153,12.4997148 C5.00898153,12.8183395 4.75346553,13.0762738 4.43782813,13.0762738 L4.2658141,13.0762738 C3.94934168,13.0762738 3.69382569,12.8183395 3.69382569,12.4997148 L3.69382569,5.56752061 C3.69382569,5.24889592 3.94934168,4.99180457 4.2658141,4.99180457 L4.43782813,4.99180457 C4.75346553,4.99180457 5.00898153,5.24889592 5.00898153,5.56752061 L5.00898153,12.4997148 Z M11.4720331,4.14719628 L2.41791577,4.14719628 C2.40789553,4.14719628 2.37866985,4.20367209 2.37866985,4.25003282 L2.37866985,12.9810235 C2.37866985,13.4303012 2.87300144,13.8003442 3.45334005,13.8003442 L10.4366088,13.8003442 C11.0169474,13.8003442 11.5830907,13.4303012 11.5830907,12.9810235 L11.5830907,4.25003282 C11.5830907,4.20367209 11.4820533,4.14719628 11.4720331,4.14719628 Z" id="Fill-1" fill="#B8BFC3"></path>
        <path d="M8.71440785,1.57877024 L8.71440785,1.0629017 C8.71440785,0.676843221 8.43133622,0.371705294 8.04806223,0.371705294 L5.89210463,0.371705294 C5.50966566,0.371705294 5.20070841,0.676843221 5.20070841,1.0629017 L5.20070841,1.57877024 L2.25166337,1.57877024 C1.93686099,1.57877024 1.66130453,1.8215319 1.66130453,2.13847075 L1.66130453,2.85293021 L12.301124,2.85293021 L12.301124,2.13847075 C12.301124,1.8215319 12.0497831,1.57877024 11.7349807,1.57877024 L8.71440785,1.57877024 Z" id="Fill-3" fill="#B8BFC3"></path>
    </g>
</svg>