<svg width="17px" height="16px" viewBox="0 0 17 16" version="1.1" xmlns="http://www.w3.org/2000/svg" xmlns:xlink="http://www.w3.org/1999/xlink">
    <g id="시안" stroke="none" stroke-width="1" fill="none" fill-rule="evenodd">
        <g id="color" transform="translate(-65.000000, -146.000000)" fill="#FFFFFF" fill-rule="nonzero">
            <g id="Group" transform="translate(58.000000, 138.000000)">
                <g id="Group-Copy-3" transform="translate(15.774777, 16.159226) rotate(-315.000000) translate(-15.774777, -16.159226) translate(5.274777, 5.159226)">
                    <path d="M11.25,10.25 L20,10.25 C20.4142136,10.25 20.75,10.5857864 20.75,11 C20.75,11.4142136 20.4142136,11.75 20,11.75 L11.25,11.75 L11.25,20.5 C11.25,20.9142136 10.9142136,21.25 10.5,21.25 C10.0857864,21.25 9.75,20.9142136 9.75,20.5 L9.75,11.75 L1,11.75 C0.585786438,11.75 0.25,11.4142136 0.25,11 C0.25,10.5857864 0.585786438,10.25 1,10.25 L9.75,10.25 L9.75,1.5 C9.75,1.08578644 10.0857864,0.75 10.5,0.75 C10.9142136,0.75 11.25,1.08578644 11.25,1.5 L11.25,10.25 Z" id="Combined-Shape"></path>
                </g>
            </g>
        </g>
    </g>
</svg>