<?xml version="1.0" encoding="UTF-8"?>
<svg width="15px" height="15px" viewBox="0 0 15 15" version="1.1" xmlns="http://www.w3.org/2000/svg" xmlns:xlink="http://www.w3.org/1999/xlink">
    <!-- Generator: Sketch 48.2 (47327) - http://www.bohemiancoding.com/sketch -->
    <title>icon-widget-refresh</title>
    <desc>Created with Sketch.</desc>
    <defs></defs>
    <g id="Artboard-Copy" stroke="none" stroke-width="1" fill="none" fill-rule="evenodd" transform="translate(-184.000000, -97.000000)">
        <path d="M192.545491,100.632865 L193.199081,102.031678 C193.373464,102.404891 193.21228,102.848805 192.839067,103.023188 C192.465854,103.19757 192.02194,103.036387 191.847557,102.663173 L190.339481,99.4355958 L193.247905,97.3787129 C193.584238,97.1408529 194.049714,97.2206811 194.287574,97.5570141 C194.525434,97.8933472 194.445606,98.3588226 194.109273,98.5966826 L193.171358,99.2599902 C195.558365,99.9975012 197.292654,102.221648 197.292654,104.850861 C197.292654,108.082096 194.67322,110.701531 191.441984,110.701531 C188.210748,110.701531 185.591314,108.082096 185.591314,104.850861 C185.591314,103.209586 186.271617,101.675429 187.446921,100.576516 C187.747824,100.295171 188.219829,100.311026 188.501173,100.611928 C188.782518,100.912831 188.766664,101.384836 188.465761,101.666181 C187.589097,102.485864 187.083093,103.626959 187.083093,104.850861 C187.083093,107.25821 189.034635,109.209752 191.441984,109.209752 C193.849333,109.209752 195.800875,107.25821 195.800875,104.850861 C195.800875,102.824759 194.418512,101.121526 192.545491,100.632865 Z" id="Combined-Shape-Copy-26" stroke="#BEC0CC" stroke-width="0.5" fill="#BEC0CC" fill-rule="nonzero" transform="translate(191.441984, 103.971639) rotate(13.000000) translate(-191.441984, -103.971639) "></path>
    </g>
</svg>