<?xml version="1.0" encoding="UTF-8"?>
<svg width="27px" height="29px" viewBox="0 0 27 29" version="1.1" xmlns="http://www.w3.org/2000/svg" xmlns:xlink="http://www.w3.org/1999/xlink">
    <!-- Generator: Sketch 52.6 (67491) - http://www.bohemiancoding.com/sketch -->
    <title>icon-magnifier</title>
    <desc>Created with Sketch.</desc>
    <g id="시안" stroke="none" stroke-width="1" fill="none" fill-rule="evenodd">
        <g id="icon-magnifier" transform="translate(1.929292, 1.512725)" fill="#9AA3A8" fill-rule="nonzero">
            <path d="M18.0497786,18.4852472 L24.0956646,24.5311332 C24.5642938,24.9997623 24.5642938,25.7595603 24.0956646,26.2281895 C23.6270355,26.6968186 22.8672375,26.6968186 22.3986083,26.2281895 L16.125474,19.9550551 C14.4069853,20.9989105 12.3897809,21.6 10.2321846,21.6 C3.95391347,21.6 -1.13563086,16.5104557 -1.13563086,10.2321846 C-1.13563086,3.95391347 3.95391347,-1.13563086 10.2321846,-1.13563086 C16.5104557,-1.13563086 21.6,3.95391347 21.6,10.2321846 C21.6,13.4820815 20.23624,16.4134551 18.0497786,18.4852472 Z M10.2321846,19.2 C15.1849723,19.2 19.2,15.1849723 19.2,10.2321846 C19.2,5.27939687 15.1849723,1.26436914 10.2321846,1.26436914 C5.27939687,1.26436914 1.26436914,5.27939687 1.26436914,10.2321846 C1.26436914,15.1849723 5.27939687,19.2 10.2321846,19.2 Z" id="icon-"></path>
        </g>
    </g>
</svg>