<svg fill="#7e8087" id="레이어_1" data-name="레이어 1" xmlns="http://www.w3.org/2000/svg" viewBox="0 0 25 25"><path class="cls-1" d="M21.09,16.23a.76.76,0,0,0-.75.75v3.83a1.79,1.79,0,0,1-1.95,1.56H3.63a1.79,1.79,0,0,1-1.95-1.56V4.33a1.79,1.79,0,0,1,2-1.56H18.39a1.79,1.79,0,0,1,1.95,1.56V8.06a.75.75,0,0,0,1.5,0V4.33a3.28,3.28,0,0,0-3.45-3.06H3.63A3.28,3.28,0,0,0,.18,4.33V20.81a3.28,3.28,0,0,0,3.45,3.06H18.39a3.28,3.28,0,0,0,3.45-3.06V17A.75.75,0,0,0,21.09,16.23Z"/><path class="cls-1" d="M24.07,11.82h-14L14.18,8a.75.75,0,1,0-1-1.09L7.67,12a.76.76,0,0,0-.24.55.74.74,0,0,0,.23.54l5.49,5.31a.73.73,0,0,0,.52.21.76.76,0,0,0,.54-.23.75.75,0,0,0,0-1.06l-4.15-4h14a.75.75,0,0,0,0-1.5Z"/></svg>