<?xml version="1.0" encoding="UTF-8"?>
<svg width="25px" height="25px" viewBox="0 0 25 25" version="1.1" xmlns="http://www.w3.org/2000/svg" xmlns:xlink="http://www.w3.org/1999/xlink">
    <!-- Generator: Sketch 52.6 (67491) - http://www.bohemiancoding.com/sketch -->
    <title>icon_more</title>
    <desc>Created with Sketch.</desc>
    <g id="시안" stroke="none" stroke-width="1" fill="none" fill-rule="evenodd">
        <g id="Group-29" fill="#000000" fill-rule="nonzero">
            <path d="M12.7060473,7.60675369 C11.6014778,7.60675369 10.7060473,6.71132319 10.7060473,5.60675369 C10.7060473,4.50218419 11.6014778,3.60675369 12.7060473,3.60675369 C13.8106168,3.60675369 14.7060473,4.50218419 14.7060473,5.60675369 C14.7060473,6.71132319 13.8106168,7.60675369 12.7060473,7.60675369 Z M12.7060473,14.1378056 C11.6014778,14.1378056 10.7060473,13.2423751 10.7060473,12.1378056 C10.7060473,11.0332361 11.6014778,10.1378056 12.7060473,10.1378056 C13.8106168,10.1378056 14.7060473,11.0332361 14.7060473,12.1378056 C14.7060473,13.2423751 13.8106168,14.1378056 12.7060473,14.1378056 Z M12.7060473,20.6688574 C11.6014778,20.6688574 10.7060473,19.7734269 10.7060473,18.6688574 C10.7060473,17.5642879 11.6014778,16.6688574 12.7060473,16.6688574 C13.8106168,16.6688574 14.7060473,17.5642879 14.7060473,18.6688574 C14.7060473,19.7734269 13.8106168,20.6688574 12.7060473,20.6688574 Z" id="icon_more"></path>
        </g>
    </g>
</svg>