<?xml version="1.0" encoding="UTF-8"?>
<svg width="27px" height="27px" viewBox="0 0 27 27" version="1.1" xmlns="http://www.w3.org/2000/svg" xmlns:xlink="http://www.w3.org/1999/xlink">
    <!-- Generator: Sketch 52.6 (67491) - http://www.bohemiancoding.com/sketch -->
    <title>icon-plus</title>
    <desc>Created with Sketch.</desc>
    <g id="시안" stroke="none" stroke-width="1" fill="none" fill-rule="evenodd">
        <path d="M12.91332,12.5073412 L12.91332,1.53826517 C12.91332,0.985980417 13.3610353,0.538265167 13.91332,0.538265167 C14.4656048,0.538265167 14.91332,0.985980417 14.91332,1.53826517 L14.91332,12.5073412 L25.8823961,12.5073412 C26.4346808,12.5073412 26.8823961,12.9550564 26.8823961,13.5073412 C26.8823961,14.0596259 26.4346808,14.5073412 25.8823961,14.5073412 L14.91332,14.5073412 L14.91332,25.4764172 C14.91332,26.028702 14.4656048,26.4764172 13.91332,26.4764172 C13.3610353,26.4764172 12.91332,26.028702 12.91332,25.4764172 L12.91332,14.5073412 L1.94424401,14.5073412 C1.39195926,14.5073412 0.944244012,14.0596259 0.944244012,13.5073412 C0.944244012,12.9550564 1.39195926,12.5073412 1.94424401,12.5073412 L12.91332,12.5073412 Z" id="icon-plus" fill="#FFFFFF" fill-rule="nonzero"></path>
    </g>
</svg>