<?xml version="1.0" encoding="UTF-8"?>
<svg width="42px" height="40px" viewBox="0 0 42 40" version="1.1" xmlns="http://www.w3.org/2000/svg" xmlns:xlink="http://www.w3.org/1999/xlink">
    <!-- Generator: Sketch 52.6 (67491) - http://www.bohemiancoding.com/sketch -->
    <title>main_icon</title>
    <desc>Created with Sketch.</desc>
    <defs>
        <linearGradient x1="59.2550415%" y1="60.5813136%" x2="18.7763101%" y2="11.2710468%" id="linearGradient-1">
            <stop stop-color="#488CFF" offset="0%"></stop>
            <stop stop-color="#5658FF" offset="63%"></stop>
            <stop stop-color="#7751E6" offset="100%"></stop>
        </linearGradient>
        <linearGradient x1="17.8282201%" y1="108.546049%" x2="80.7783171%" y2="34.9437202%" id="linearGradient-2">
            <stop stop-color="#54EFF7" offset="0%"></stop>
            <stop stop-color="#00C260" offset="100%"></stop>
        </linearGradient>
    </defs>
    <g id="시안" stroke="none" stroke-width="1" fill="none" fill-rule="evenodd">
        <g id="main_icon" transform="translate(0.451265, 0.270302)" fill-rule="nonzero">
            <path d="M40.5089905,18.2757586 C40.5089905,17.8243757 40.414515,17.3834901 40.3410341,16.9531017 C40.0057065,14.8429297 39.3767709,12.7900556 38.4725188,10.854184 C36.8542721,7.56479344 34.339889,4.79933588 31.2189007,2.87625379 C30.189555,2.21731451 29.0956751,1.66509861 27.9542476,1.22818136 C25.8761168,0.564084936 23.7113436,0.210363812 21.5299144,0.178453703 C18.2050419,-0.00998943538 14.8722657,-0.013493932 11.5470043,0.167956426 C10.1291921,0.156745217 8.7657452,0.712851345 7.76021616,1.71246552 C6.75468711,2.71207969 6.19054679,4.07222199 6.19339321,5.49007567 L6.19339321,20.0602956 C6.19339321,23.1359977 8.19837304,25.6343495 11.2740751,25.6343495 C12.5282694,25.6562068 13.7465555,25.2152321 14.6961873,24.3956709 C15.9195525,23.351443 16.5965863,21.8039372 16.5332107,20.1967602 C16.5332107,18.1602886 15.2210511,12.6912074 18.023824,10.6442385 C19.5681056,9.46616536 21.590717,9.1173041 23.4404187,9.70998087 C27.6608975,10.8950209 30.7311411,14.5352148 31.1874088,18.8950979 C36.3310744,29.4763528 32.6465303,35.5857677 32.6465303,35.5857677 C38.9448963,30.9354742 41.212308,25.6973332 40.5089905,18.2757586 Z" id="Shape" fill="url(#linearGradient-1)"></path>
            <path d="M32.9509513,35.3548277 C29.0459644,38.2625733 23.4404187,38.745448 22.1807455,38.745448 L17.834873,38.745448 C15.7891616,38.7664836 13.9007871,37.6504422 12.9326448,35.8481997 C12.9326448,35.8481997 12.9326448,35.8481997 12.9326448,35.7957133 C12.6387211,35.0923957 10.8331895,34.0741599 10.4028011,35.1133903 C10.4028011,35.1133903 10.4028011,35.1133903 10.4028011,35.1133903 C9.57139117,37.5410486 7.10654448,39.0116313 4.57530636,38.5902043 C2.04406823,38.1687772 0.188651383,35.9789116 0.188651383,33.4128315 C0.188651383,30.8467514 2.04406823,28.6568858 4.57530636,28.2354587 C7.10654448,27.8140316 9.57139117,29.2846144 10.4028011,31.7122727 L10.4552875,31.8172454 C10.8961731,33.013935 12.7017047,31.7332672 12.9746339,31.1034306 C12.9746339,31.1034306 12.9746339,31.1034306 12.9746339,31.1034306 C13.892639,29.2485025 15.7757954,28.0674712 17.8453703,28.0487231 C19.3749559,28.1677707 20.9102646,28.1958128 22.4431774,28.1327013 C25.3737532,28.1527376 28.1246224,26.7222856 29.7912711,24.3116927 C32.8354813,20.301733 30.0327084,15.0425974 30.0327084,15.0425974 C34.42057,18.4227205 36.8454409,23.4404187 35.7117351,30.0851948 C35.4375777,31.5058318 34.8845631,32.8580416 34.0846572,34.0636626 C33.8957062,34.3785809 32.9509513,35.3548277 32.9509513,35.3548277 Z" id="Shape" fill="url(#linearGradient-2)"></path>
        </g>
    </g>
</svg>