<?xml version="1.0" encoding="UTF-8"?>
<svg width="26px" height="25px" viewBox="0 0 26 25" version="1.1" xmlns="http://www.w3.org/2000/svg" xmlns:xlink="http://www.w3.org/1999/xlink">
    <!-- Generator: Sketch 52.6 (67491) - http://www.bohemiancoding.com/sketch -->
    <title>icon_monitor</title>
    <desc>Created with Sketch.</desc>
    <g id="시안" stroke="none" stroke-width="1" fill="none" fill-rule="evenodd">
        <path d="M12.3132146,23.3322308 L12.3132146,20.3802714 L2.29826358,20.3802714 C1.02923622,20.3802714 -0.00307411439,19.3465604 -0.00307411439,18.077533 L-0.00307411439,2.75535833 C-0.00307411439,1.48633097 1.02923622,0.452619939 2.29826358,0.452619939 L23.6111999,0.452619939 C24.8802273,0.452619939 25.9111369,1.48633097 25.9111369,2.75535833 L25.9111369,18.077533 C25.9111369,19.3465604 24.8802273,20.3802714 23.6111999,20.3802714 L13.5948482,20.3802714 L13.5948482,23.3322308 L18.9356885,23.3322308 L18.9356885,24.6152651 L6.96537083,24.6152651 L6.96537083,23.3322308 L12.3132146,23.3322308 Z M1.27855948,13.6912646 L24.6295033,13.6912646 L24.6295033,2.75535833 C24.6295033,2.19368066 24.1728776,1.73565422 23.6111999,1.73565422 L2.29826358,1.73565422 C1.73658591,1.73565422 1.27855948,2.19368066 1.27855948,2.75535833 L1.27855948,13.6912646 Z M1.27855948,14.9742989 L1.27855948,18.077533 C1.27855948,18.6392107 1.73658591,19.0972372 2.29826358,19.0972372 L23.6111999,19.0972372 C24.1728776,19.0972372 24.6295033,18.6392107 24.6295033,18.077533 L24.6295033,14.9742989 L1.27855948,14.9742989 Z M13.9237308,17.1603596 C13.9237308,17.6954241 13.4895161,18.1296388 12.9544516,18.1296388 C12.4193871,18.1296388 11.9851724,17.6954241 11.9851724,17.1603596 C11.9851724,16.6252951 12.4193871,16.1910805 12.9544516,16.1910805 C13.4895161,16.1910805 13.9237308,16.6252951 13.9237308,17.1603596 Z" id="icon_monitor" fill="#FFFFFF"></path>
    </g>
</svg>