<?xml version="1.0" encoding="UTF-8"?>
<svg width="28px" height="29px" viewBox="0 0 28 29" version="1.1" xmlns="http://www.w3.org/2000/svg" xmlns:xlink="http://www.w3.org/1999/xlink">
    <!-- Generator: Sketch 52.6 (67491) - http://www.bohemiancoding.com/sketch -->
    <title>icon_wheel</title>
    <desc>Created with Sketch.</desc>
    <g id="시안" stroke="none" stroke-width="1" fill="none" fill-rule="evenodd" opacity="0.900000036">
        <path d="M22.650071,6.3129828 C23.5493348,5.89526356 24.5697925,6.27076981 25.0237101,7.10275474 L26.3170555,9.41784014 C26.7525385,10.2159613 26.5197995,11.2319256 25.7540382,11.8586091 L24.8353131,12.4934944 C24.9397793,13.0463108 25.0064489,13.5981679 25.0322824,14.1417045 L26.102604,14.5826695 C26.9828964,14.9591009 27.4534686,15.9134556 27.1566909,16.791988 L26.4438495,19.359076 C26.1377586,20.2663766 25.2572141,20.8035958 24.3205573,20.6291686 L23.2751711,20.4554854 C22.943208,20.9735439 22.5469473,21.4634004 22.0865053,21.9348208 L22.4757741,22.8525766 C22.8440998,23.7101043 22.4955626,24.7301836 21.6609591,25.2385191 L19.3382859,26.4837298 C18.5040199,26.9314102 17.4077238,26.7022232 16.9336904,25.9273241 L16.3292456,25.0773495 C15.621706,25.2101888 15.0691479,25.2757502 14.5279712,25.2747412 L14.1398721,26.1928692 C13.7711948,27.0512156 12.8024041,27.5220884 11.8664919,27.272847 L9.38689781,26.5112959 C8.45233989,26.2660234 7.87881723,25.3343987 8.06140942,24.4329796 L8.2125087,23.4039323 C7.72779164,23.0725906 7.29515305,22.7236137 6.9113174,22.3468414 L5.94556889,22.7291119 C5.11415769,23.1136376 4.08273483,22.7601245 3.56865738,21.932249 L2.30326005,19.6002513 C1.89049132,18.7757602 2.11568178,17.8121663 2.88411829,17.1815524 L3.76186393,16.5836062 C3.65502742,16.0054653 3.59335523,15.4325048 3.58298018,14.8803762 L2.59312875,14.4460848 C1.66276801,14.1396742 1.18663329,13.1572373 1.445786,12.1944464 L2.21685847,9.68091191 C2.47386746,8.78000405 3.37406366,8.20204748 4.32247002,8.37811861 L5.49118978,8.5846085 C5.80294876,8.12834385 6.16112562,7.68721642 6.56230294,7.25895092 L6.10400053,6.11020796 C5.79313656,5.24186227 6.13389902,4.27983492 6.96877889,3.80679316 L9.27948277,2.54913232 C10.131789,2.12353249 11.1616533,2.3382811 11.6987757,3.11206084 L12.4128673,4.1086434 C12.9323311,4.01723844 13.4724743,3.96765209 14.0006711,3.96208582 L14.4887613,2.86655383 C14.8487771,1.97032714 15.7796121,1.51724227 16.7192542,1.76644358 L19.2930058,2.50831293 C20.1883329,2.80548902 20.731402,3.65712209 20.6066017,4.63036664 L20.3971957,5.82674862 C20.8078085,6.10739732 21.1916676,6.41832196 21.5575057,6.76676624 L22.650071,6.3129828 Z M16.7438401,18.9698865 C14.2976677,20.2678967 11.2596563,19.388324 9.94987214,17.0000991 C8.60139633,14.6118742 9.48700531,11.5959931 11.9331777,10.2951364 C14.2976677,8.95585173 17.3758038,9.83400117 18.6841549,12.2250726 C20.0340637,14.6531487 19.105464,17.6291786 16.7438401,18.9698865 Z" id="icon_wheel" stroke="#FFFFFF" stroke-width="1.5"></path>
    </g>
</svg>