<svg xmlns="http://www.w3.org/2000/svg" viewBox="0 0 15.03 15.03"><path class="a" d="M12.89,2.18H5.35A1.56,1.56,0,0,0,3.79,3.74V5.23a.66.66,0,0,0,.66.67.67.67,0,0,0,.67-.67V3.74a.22.22,0,0,1,.23-.22h7.54a.22.22,0,0,1,.22.22v7.54a.22.22,0,0,1-.22.23H5.35a.23.23,0,0,1-.23-.23V9.79a.67.67,0,0,0-.67-.67.66.66,0,0,0-.66.67v1.49a1.56,1.56,0,0,0,1.56,1.56h7.54a1.56,1.56,0,0,0,1.56-1.56V3.74A1.56,1.56,0,0,0,12.89,2.18Z"/><path class="a" d="M8.62,9.73a.66.66,0,0,0,.05.94.64.64,0,0,0,.45.18.68.68,0,0,0,.49-.22L12,8h0a1,1,0,0,0,.11-.17v0s0,0,0-.06a1,1,0,0,0,0-.17V7.45a.73.73,0,0,0,0-.2v0A.42.42,0,0,0,12,7.07L9.61,4.4a.66.66,0,0,0-.94,0,.66.66,0,0,0-.05.94L10,6.85H1.33a.67.67,0,1,0,0,1.33H10Z"/></svg>