<svg id="레이어_1" data-name="레이어 1" xmlns="http://www.w3.org/2000/svg" viewBox="0 0 20 20"><title>icon</title><path d="M17.14,1.85H2.86A1.92,1.92,0,0,0,1,3.77v9.49a1.92,1.92,0,0,0,1.91,1.92H9.5v1.73H5.94a.5.5,0,0,0-.5.5.5.5,0,0,0,.5.5h8.12a.5.5,0,0,0,.5-.5.51.51,0,0,0-.5-.5H10.5V15.18h6.64a1.92,1.92,0,0,0,1.91-1.92V3.77A1.92,1.92,0,0,0,17.14,1.85Zm-14.28,1H17.14a.92.92,0,0,1,.91.92v6.81H2V3.77A.92.92,0,0,1,2.86,2.85ZM17.14,14.18H2.86A.92.92,0,0,1,2,13.26V11.58h16.1v1.68A.92.92,0,0,1,17.14,14.18Z"/><path d="M10,12.13a.72.72,0,0,0-.72.72.72.72,0,1,0,1.44,0A.72.72,0,0,0,10,12.13Z"/></svg>