<?xml version="1.0" encoding="UTF-8"?>
<svg width="20px" height="20px" viewBox="0 0 20 20" version="1.1" xmlns="http://www.w3.org/2000/svg" xmlns:xlink="http://www.w3.org/1999/xlink">
    <!-- Generator: Sketch 52.6 (67491) - http://www.bohemiancoding.com/sketch -->
    <title>icon_mobile</title>
    <desc>Created with Sketch.</desc>
    <g id="시안" stroke="none" stroke-width="1" fill="none" fill-rule="evenodd">
        <g id="Group-15" transform="translate(-0.446965, -0.941907)" fill="#FFFFFF" fill-rule="nonzero">
            <path d="M5.33284479,14.7346318 L15.5610843,14.7346318 L15.5610843,4.30649406 C15.5610843,3.75420931 15.1133691,3.30649406 14.5610843,3.30649406 L6.33284479,3.30649406 C5.78056004,3.30649406 5.33284479,3.75420931 5.33284479,4.30649406 L5.33284479,14.7346318 Z M5.33284479,15.7346318 L5.33284479,17.5773198 C5.33284479,18.1296045 5.78056004,18.5773198 6.33284479,18.5773198 L14.5610843,18.5773198 C15.1133691,18.5773198 15.5610843,18.1296045 15.5610843,17.5773198 L15.5610843,15.7346318 L5.33284479,15.7346318 Z M6.33284479,2.30649406 L14.5610843,2.30649406 C15.6656538,2.30649406 16.5610843,3.20192456 16.5610843,4.30649406 L16.5610843,17.5773198 C16.5610843,18.6818893 15.6656538,19.5773198 14.5610843,19.5773198 L6.33284479,19.5773198 C5.22827529,19.5773198 4.33284479,18.6818893 4.33284479,17.5773198 L4.33284479,4.30649406 C4.33284479,3.20192456 5.22827529,2.30649406 6.33284479,2.30649406 Z M10.3213586,17.8792482 C9.92510119,17.8792482 9.60387109,17.5688243 9.60387109,17.185897 C9.60387109,16.8029697 9.92510119,16.4925458 10.3213586,16.4925458 C10.717616,16.4925458 11.0388461,16.8029697 11.0388461,17.185897 C11.0388461,17.5688243 10.717616,17.8792482 10.3213586,17.8792482 Z" id="Combined-Shape"></path>
        </g>
    </g>
</svg>