<svg xmlns="http://www.w3.org/2000/svg" viewBox="0 0 15.03 15.03"><path class="a" d="M3.15,12.9a1,1,0,0,0,1,1H11a1,1,0,0,0,1-1V4.67H3.15ZM9.38,6.09a.6.6,0,0,1,.6-.6h.07a.6.6,0,0,1,.6.6v6.42a.6.6,0,0,1-.6.61H10a.6.6,0,0,1-.6-.61Zm-2.5,0a.6.6,0,0,1,.6-.6h.07a.6.6,0,0,1,.6.6v6.42a.6.6,0,0,1-.6.61H7.48a.6.6,0,0,1-.6-.61Zm-2.5,0a.6.6,0,0,1,.6-.6h.07a.6.6,0,0,1,.6.6v6.42a.6.6,0,0,1-.6.61H5a.6.6,0,0,1-.6-.61Z"/><path class="a" d="M9.57,2.45V2a.83.83,0,0,0-.83-.83H6.36A.84.84,0,0,0,5.52,2v.48H2.46V3.89H12.57V2.45Z"/></svg>