<?xml version="1.0" encoding="UTF-8"?>
<svg width="21px" height="20px" viewBox="0 0 21 20" version="1.1" xmlns="http://www.w3.org/2000/svg" xmlns:xlink="http://www.w3.org/1999/xlink">
    <!-- Generator: Sketch 52.6 (67491) - http://www.bohemiancoding.com/sketch -->
    <title>icon_desktop</title>
    <desc>Created with Sketch.</desc>
    <defs>
        <polygon id="path-1" points="0 0.0912491937 18.443229 0.0912491937 18.443229 13.7962397 0 13.7962397"></polygon>
    </defs>
    <g id="시안" stroke="none" stroke-width="1" fill="none" fill-rule="evenodd">
        <g id="Group-31">
            <g id="icon_desktop" transform="translate(1.776658, 1.500000)">
                <g id="Group-3" transform="translate(0.000000, 0.240836)">
                    <mask id="mask-2" fill="white">
                        <use xlink:href="#path-1"></use>
                    </mask>
                    <g id="Clip-2"></g>
                </g>
                <path d="M1.63786959,1.21402475 C1.23812174,1.21402475 0.912142831,1.52903771 0.912142831,1.91533801 L0.912142831,12.4533404 C0.912142831,12.8396407 1.23812174,13.1546537 1.63786959,13.1546537 L16.8063563,13.1546537 C17.2061041,13.1546537 17.5310861,12.8396407 17.5310861,12.4533404 L17.5310861,1.91533801 C17.5310861,1.52903771 17.2061041,1.21402475 16.8063563,1.21402475 L1.63786959,1.21402475 Z M16.8063563,14.0370753 L1.63786959,14.0370753 C0.734698651,14.0370753 0,13.3261286 0,12.4533404 L0,1.91533801 C0,1.0425498 0.734698651,0.33160312 1.63786959,0.33160312 L16.8063563,0.33160312 C17.7095272,0.33160312 18.443229,1.0425498 18.443229,1.91533801 L18.443229,12.4533404 C18.443229,13.3261286 17.7095272,14.0370753 16.8063563,14.0370753 Z" id="Fill-1" fill="#FFFFFF"></path>
                <polygon id="Clip-5" points="0 16.949741 18.4442258 16.949741 18.4442258 0.332084791 0 0.332084791"></polygon>
                <polygon id="Fill-4" fill="#FFFFFF" points="0.455572977 10.3190553 17.987656 10.3190553 17.987656 9.43663371 0.455572977 9.43663371"></polygon>
                <path d="M9.91175272,11.8225438 C9.91175272,12.1905406 9.60272072,12.4891767 9.22191355,12.4891767 C8.84110638,12.4891767 8.53207438,12.1905406 8.53207438,11.8225438 C8.53207438,11.454547 8.84110638,11.1559109 9.22191355,11.1559109 C9.60272072,11.1559109 9.91175272,11.454547 9.91175272,11.8225438" id="Fill-6" fill="#FFFFFF"></path>
                <polygon id="Fill-7" fill="#FFFFFF" points="8.76554307 16.4353162 9.6776859 16.4353162 9.6776859 13.5953828 8.76554307 13.5953828"></polygon>
                <polygon id="Fill-8" fill="#FFFFFF" points="4.95946512 16.949741 13.4787795 16.949741 13.4787795 16.0673194 4.95946512 16.0673194"></polygon>
            </g>
        </g>
    </g>
</svg>